<?xml version="1.0" encoding="UTF-8" standalone="no"?><!DOCTYPE svg PUBLIC "-//W3C//DTD SVG 1.1//EN" "http://www.w3.org/Graphics/SVG/1.1/DTD/svg11.dtd"><svg width="100%" height="100%" viewBox="0 0 225 225" version="1.1" xmlns="http://www.w3.org/2000/svg" xmlns:xlink="http://www.w3.org/1999/xlink" xml:space="preserve" xmlns:serif="http://www.serif.com/" style="fill-rule:evenodd;clip-rule:evenodd;stroke-linecap:round;stroke-linejoin:round;stroke-miterlimit:1.5;"><g><circle cx="112.5" cy="112.5" r="104.698" style="fill:#165c94;stroke:#fff;stroke-width:4.5px;"/><text x="64.982px" y="52.121px" style="font-family:'DINCondensed-Bold', 'DIN Condensed';font-weight:700;font-stretch:condensed;font-size:30.101px;">Pr<tspan x="85.421px 96.559px " y="52.121px 52.121px ">ag</tspan>Matic</text><path d="M108.336,97.24c33.543,-9.19 46.72,-15.813 62.109,-21.877c43.937,-17.213 47.208,2.14 48.865,8.324c1.656,6.183 8.495,24.705 -38.029,32.114c-20.032,3.272 -37.026,5.823 -63.899,12.862c-26.793,7.341 -43.814,13.904 -62.798,21.086c-43.995,16.845 -47.334,-2.614 -48.991,-8.797c-1.656,-6.183 -8.5,-24.579 38.156,-31.641c16.36,-2.443 34.918,-4.3 64.587,-12.071Z" style="fill:#e3d534;stroke:#000;stroke-width:0.6px;"/><text x="72.794px" y="196.055px" style="font-family:'DINCondensed-Bold', 'DIN Condensed';font-weight:700;font-stretch:condensed;font-size:41.317px;">House</text><g transform="matrix(0.965926,-0.258819,0.258819,0.965926,-12.9481,-29.1381)"><text x="45.669px" y="183.835px" style="font-family:'DINCondensed-Bold', 'DIN Condensed';font-weight:700;font-stretch:condensed;font-size:41.317px;">Board</text></g></g></svg>